<?xml version="1.0" encoding="UTF-8" standalone="no"?>
<!-- Created with Inkscape (http://www.inkscape.org/) -->

<svg
   width="54mm"
   height="12mm"
   viewBox="0 0 54 12"
   version="1.1"
   id="svg5"
   inkscape:version="1.1 (1:1.1+202105261517+ce6663b3b7)"
   sodipodi:docname="drawing.svg"
   xmlns:inkscape="http://www.inkscape.org/namespaces/inkscape"
   xmlns:sodipodi="http://sodipodi.sourceforge.net/DTD/sodipodi-0.dtd"
   xmlns="http://www.w3.org/2000/svg"
   xmlns:svg="http://www.w3.org/2000/svg">
  <sodipodi:namedview
     id="namedview7"
     pagecolor="#ffffff"
     bordercolor="#666666"
     borderopacity="1.0"
     inkscape:pageshadow="2"
     inkscape:pageopacity="0.0"
     inkscape:pagecheckerboard="0"
     inkscape:document-units="mm"
     showgrid="false"
     inkscape:zoom="2.8284271"
     inkscape:cx="118.61716"
     inkscape:cy="35.178562"
     inkscape:window-width="1304"
     inkscape:window-height="704"
     inkscape:window-x="62"
     inkscape:window-y="27"
     inkscape:window-maximized="1"
     inkscape:current-layer="layer1"
     width="211mm"
     units="mm" />
  <defs
     id="defs2" />
  <g
     inkscape:label="Layer 1"
     inkscape:groupmode="layer"
     id="layer1">
    <text
       xml:space="preserve"
       style="font-size:10.5833px;line-height:1.25;font-family:Poppins;-inkscape-font-specification:'Poppins, Normal';word-spacing:0px;stroke-width:0.264583"
       x="-23.168705"
       y="-34.906509"
       id="text8287"><tspan
         sodipodi:role="line"
         style="stroke-width:0.264583"
         x="-23.168705"
         y="-34.906509"
         id="tspan8289">PLUPWEB</tspan></text>
    <text
       xml:space="preserve"
       style="font-size:10.5833px;line-height:1.25;font-family:Poppins;-inkscape-font-specification:'Poppins, Normal';word-spacing:0px;stroke-width:0.264583"
       x="-22.731443"
       y="-9.636179"
       id="text17473"><tspan
         sodipodi:role="line"
         id="tspan17471"
         style="stroke-width:0.264583"
         x="-22.731443"
         y="-9.636179">PlupWeb</tspan></text>
    <text
       xml:space="preserve"
       style="font-size:10.5833px;line-height:1.25;font-family:Poppins;-inkscape-font-specification:'Poppins, Normal';word-spacing:0px;stroke-width:0.264583"
       x="111.89877"
       y="-100.39683"
       id="text24971"><tspan
         sodipodi:role="line"
         id="tspan24969"
         style="stroke-width:0.264583"
         x="111.89877"
         y="-100.39683">Código,</tspan><tspan
         sodipodi:role="line"
         style="stroke-width:0.264583"
         x="111.89877"
         y="-87.167702"
         id="tspan24973">programación</tspan><tspan
         sodipodi:role="line"
         style="stroke-width:0.264583"
         x="111.89877"
         y="-73.938576"
         id="tspan29033">páginas web</tspan><tspan
         sodipodi:role="line"
         style="stroke-width:0.264583"
         x="111.89877"
         y="-60.709454"
         id="tspan31075">calidad</tspan><tspan
         sodipodi:role="line"
         style="stroke-width:0.264583"
         x="111.89877"
         y="-47.480331"
         id="tspan31077">tecnología</tspan><tspan
         sodipodi:role="line"
         style="stroke-width:0.264583"
         x="111.89877"
         y="-34.251205"
         id="tspan31079">innovación</tspan><tspan
         sodipodi:role="line"
         style="stroke-width:0.264583"
         x="111.89877"
         y="-21.022079"
         id="tspan31081">economico</tspan><tspan
         sodipodi:role="line"
         style="stroke-width:0.264583"
         x="111.89877"
         y="-7.7929559"
         id="tspan31085">amigable</tspan><tspan
         sodipodi:role="line"
         style="stroke-width:0.264583"
         x="111.89877"
         y="5.4361687"
         id="tspan24975" /></text>
    <g
       id="g90939">
      <g
         aria-label="Plupweb"
         id="g57701"
         style="font-size:10.5833px;line-height:1.25;font-family:Poppins;-inkscape-font-specification:'Poppins, Normal';word-spacing:0px;stroke-width:0.264583"
         transform="matrix(1,0,0,0.99997165,5.2434457,-54.948841)">
        <path
           d="m 33.904626,12.822621 q 0,0.920747 -0.634998,1.534579 -0.624415,0.603248 -1.915577,0.603248 h -1.418163 v 3.07974 h -0.96308 v -7.37656 h 2.381243 q 1.248829,0 1.89441,0.603248 0.656165,0.603248 0.656165,1.555745 z M 31.354051,14.1667 q 0.80433,0 1.185329,-0.349249 0.380999,-0.349249 0.380999,-0.99483 0,-1.365246 -1.566328,-1.365246 H 29.935888 V 14.1667 Z"
           id="path57687" />
        <path
           d="m 36.063604,10.208546 v 7.831642 h -0.963081 v -7.831642 z"
           id="path57689" />
        <path
           d="m 42.847482,12.24054 v 5.799648 h -0.963081 v -0.857247 q -0.275165,0.444498 -0.772581,0.698497 -0.486831,0.243416 -1.079496,0.243416 -0.677331,0 -1.21708,-0.275166 -0.539748,-0.285749 -0.857247,-0.846664 -0.306916,-0.560914 -0.306916,-1.365245 V 12.24054 h 0.952497 v 3.270239 q 0,0.857247 0.433916,1.322913 0.433915,0.455082 1.185329,0.455082 0.772581,0 1.21708,-0.476249 0.444498,-0.476248 0.444498,-1.386412 V 12.24054 Z"
           id="path57691" />
        <path
           d="m 45.440384,13.309453 q 0.285749,-0.497415 0.846664,-0.825497 0.571498,-0.338666 1.322913,-0.338666 0.77258,0 1.396995,0.370415 0.634998,0.370416 0.99483,1.047747 0.359832,0.666748 0.359832,1.555745 0,0.878414 -0.359832,1.566328 -0.359832,0.687915 -0.99483,1.068914 -0.624415,0.380999 -1.396995,0.380999 -0.740831,0 -1.31233,-0.328083 -0.560915,-0.338665 -0.857247,-0.83608 v 3.820571 h -0.96308 V 12.24054 h 0.96308 z m 3.936988,1.809744 q 0,-0.656164 -0.264583,-1.142996 -0.264582,-0.486832 -0.719664,-0.740831 -0.444499,-0.253999 -0.984247,-0.253999 -0.529165,0 -0.984247,0.264582 -0.444499,0.253999 -0.719664,0.751414 -0.264583,0.486832 -0.264583,1.132413 0,0.656165 0.264583,1.15358 0.275165,0.486832 0.719664,0.751414 0.455082,0.254 0.984247,0.254 0.539748,0 0.984247,-0.254 0.455082,-0.264582 0.719664,-0.751414 0.264583,-0.497415 0.264583,-1.164163 z"
           id="path57693" />
        <path
           d="m 59.357409,12.24054 -1.809744,5.799648 h -0.99483 l -1.396996,-3.104253 -1.396995,3.104253 h -0.99483 L 50.943686,12.24054 h 0.984247 l 1.333496,4.868317 1.439329,-3.368834 h 0.984246 l 1.407579,3.379418 1.312329,-4.878901 z"
           id="path57695"
           sodipodi:nodetypes="cccccccccccccc" />
        <path
           d="m 65.601553,14.918114 q 0,0.275166 -0.03175,0.582082 h -4.635485 q 0.05292,0.857247 0.582082,1.344079 0.539748,0.476248 1.301745,0.476248 0.624415,0 1.037164,-0.285749 0.423332,-0.296332 0.592665,-0.783164 h 1.037163 q -0.232833,0.836081 -0.93133,1.365246 -0.698498,0.518582 -1.735662,0.518582 -0.825497,0 -1.481661,-0.370416 -0.645582,-0.370415 -1.015997,-1.047747 -0.370416,-0.687914 -0.370416,-1.587495 0,-0.89958 0.359832,-1.576911 0.359833,-0.677331 1.005414,-1.037164 0.656165,-0.370415 1.502828,-0.370415 0.825498,0 1.460496,0.359832 0.634998,0.359832 0.973663,0.99483 0.349249,0.624415 0.349249,1.418162 z m -0.99483,-0.201082 q 0,-0.550332 -0.243416,-0.941914 -0.243416,-0.402165 -0.666748,-0.603248 -0.412748,-0.211666 -0.920747,-0.211666 -0.730247,0 -1.248829,0.465665 -0.507998,0.465665 -0.582082,1.291163 z"
           id="path57697" />
        <path
           d="m 67.834616,13.320036 q 0.296332,-0.518581 0.86783,-0.846664 0.571499,-0.328082 1.301746,-0.328082 0.783164,0 1.407579,0.370415 0.624415,0.370416 0.984247,1.047747 0.359832,0.666748 0.359832,1.555745 0,0.878414 -0.359832,1.566328 -0.359832,0.687915 -0.99483,1.068914 -0.624415,0.380999 -1.396996,0.380999 -0.751414,0 -1.322912,-0.328083 -0.560915,-0.328082 -0.846664,-0.83608 v 1.068913 h -0.96308 v -7.831642 h 0.96308 z m 3.936987,1.799161 q 0,-0.656164 -0.264582,-1.142996 -0.264583,-0.486832 -0.719665,-0.740831 -0.444498,-0.253999 -0.984246,-0.253999 -0.529165,0 -0.984247,0.264582 -0.444499,0.253999 -0.719665,0.751414 -0.264582,0.486832 -0.264582,1.132413 0,0.656165 0.264582,1.15358 0.275166,0.486832 0.719665,0.751414 0.455082,0.254 0.984247,0.254 0.539748,0 0.984246,-0.254 0.455082,-0.264582 0.719665,-0.751414 0.264582,-0.497415 0.264582,-1.164163 z"
           id="path57699" />
      </g>
      <circle
         style="fill:#000000;stroke-width:1.4;paint-order:markers stroke fill"
         id="circle57703"
         cx="58.733673"
         cy="-43.648445"
         r="0.62427342" />
      <circle
         style="fill:#000000;stroke-width:1.4;paint-order:markers stroke fill"
         id="circle57705"
         cx="61.784924"
         cy="-43.729549"
         r="0.62427342" />
    </g>
    <text
       xml:space="preserve"
       style="font-size:10.5833px;line-height:1.25;font-family:Poppins;-inkscape-font-specification:'Poppins, Normal';word-spacing:0px;stroke-width:0.264583"
       x="-22.948025"
       y="-23.14596"
       id="text60979"><tspan
         sodipodi:role="line"
         id="tspan60977"
         style="stroke-width:0.264583"
         x="-22.948025"
         y="-23.14596">plupweb</tspan></text>
    <text
       xml:space="preserve"
       style="font-size:10.5833px;line-height:1.25;font-family:Poppins;-inkscape-font-specification:'Poppins, Normal';word-spacing:0px;stroke-width:0.264583"
       x="85.32003"
       y="14.575864"
       id="text68657"><tspan
         sodipodi:role="line"
         id="tspan68655"
         style="stroke-width:0.264583"
         x="85.32003"
         y="14.575864" /></text>
    <g
       id="g90945"
       transform="translate(-20.610327,-7.9447368)">
      <text
         xml:space="preserve"
         style="font-size:10.5833px;line-height:1.25;font-family:Poppins;-inkscape-font-specification:'Poppins, Normal';word-spacing:0px;stroke-width:0.264583"
         x="28.809484"
         y="16.873981"
         id="text13245"><tspan
           sodipodi:role="line"
           id="tspan13243"
           style="stroke-width:0.264583"
           x="28.809484"
           y="16.873981">Plupweb</tspan></text>
      <path
         style="fill:none;fill-opacity:1;stroke:#000000;stroke-width:0.8;stroke-miterlimit:4;stroke-dasharray:none;stroke-opacity:1;paint-order:markers stroke fill"
         d="m 26.231491,9.1997046 c 0.06131,-0.06009 0.05944,-0.046208 0.06131,-0.06009 0.02188,-0.1614038 -2.324012,0.8514956 -3.349244,2.3277444 -0.638877,0.919926 -0.740199,1.283512 -0.907765,2.302074 -0.04005,0.24345 -0.05703,0.559709 -0.05386,0.607752 0.0024,0.03507 3.37e-4,0.113515 -4.72e-4,0.150015 2.18e-4,1.354372 1.198498,2.450754 2.70741,2.45078 1.481601,-2.6e-5 2.687836,-1.058483 2.731185,-2.378951 8e-4,-0.02435 0.003,-0.04883 0.0013,-0.07329 -0.04207,-0.598026 -0.265434,-1.036738 -0.265434,-1.036738 -0.294589,-0.636062 -0.573986,-0.859186 -0.966447,-1.866761 -0.667738,-1.7142979 0.04211,-2.4225384 0.04211,-2.4225384 z"
         sodipodi:nodetypes="cssssccsssscc"
         id="path90943" />
    </g>
  </g>
</svg>
